# xmcd
#
# Track frame offsets:
# 150
# 13335
# 34203
# 55556
# 65294
# 86594
# 110652
# 125955
# 139307
# 152412
# 164586
# 182992
# 201589
# 208621
# 223382
# 248332
# 262710
# 274865
# 289228
# 306180
#
# Disc length: 4372 seconds
#
#
# Revision: 0
# Processed by: cddbd v1.5.1PL2 Copyright (c) Steve Scherf et al.
# Submitted via: FreeRIP 2.944 
#
DISCID=38111214
DTITLE=Fernando Delgadillo - Fernando Delgadillo
DYEAR=1900
DGENRE=Vocal
TTITLE0=Hoy ten miedo de mi
TTITLE1=No me pidas ser tu amigo
TTITLE2=Mi tiempo
TTITLE3=Puede que pueda
TTITLE4=Carbonero
TTITLE5=Primera esterella de la tarde
TTITLE6=Tus cartas
TTITLE7=Vuelos
TTITLE8=Bienvenida
TTITLE9=Dias de sombrillas
TTITLE10=Al sol de mediodia
TTITLE11=Llovizna
TTITLE12=Reflexiones en la mesa
TTITLE13=el rag de las tres
TTITLE14=Evoluciones
TTITLE15=Vuelos
TTITLE16=En tu cumpleaños
TTITLE17=Hoy hace un buen dia
TTITLE18=A tu vuelta
TTITLE19=Mi cerrada
EXTD=
EXTT0=
EXTT1=
EXTT2=
EXTT3=
EXTT4=
EXTT5=
EXTT6=
EXTT7=
EXTT8=
EXTT9=
EXTT10=
EXTT11=
EXTT12=
EXTT13=
EXTT14=
EXTT15=
EXTT16=
EXTT17=
EXTT18=
EXTT19=
PLAYORDER=
